<svg version="1.2" xmlns="http://www.w3.org/2000/svg" viewBox="0 0 1024 992" width="1024" height="992">
	<style>
		.s0 { fill: #fefefe } 
		.s1 { fill: #010101 } 
	</style>
	<g id="Background">
		<path id="Path 0" class="s0" d="m0 496v496h1024v-992h-1024z"/>
		<path id="Path 1" fill-rule="evenodd" class="s1" d="m513 135.43c0.83 0.16 12.3 3.32 25.5 7.01 13.2 3.69 35.92 10.03 50.5 14.08 14.58 4.06 46.52 12.77 71 19.37 24.48 6.6 73.75 20.15 109.5 30.11 35.75 9.96 76.02 21.05 89.5 24.63 13.48 3.58 33.5 8.98 44.5 12 11 3.01 21.58 5.96 23.5 6.54 2.59 0.79 3.11 1.27 2 1.85-0.83 0.42-8.48 2.64-17 4.93-8.52 2.28-15.81 4.46-16.19 4.85-0.38 0.38-4.8 11.72-9.81 25.2-5.01 13.48-12.71 34.18-17.12 46-4.4 11.82-8.38 21.95-8.84 22.5-0.49 0.59-2.87-3.29-5.82-9.5-2.73-5.77-10.7-22.43-17.7-37-7-14.57-13.11-26.95-13.58-27.5-0.54-0.65-6.78 0.58-17.79 3.5-9.32 2.48-17.21 4.84-17.55 5.25-0.33 0.41 11.8 25.84 54.53 112.25l-0.07 39.25c-0.04 25.23 0.3 39.43 0.94 39.75 0.55 0.27 7.41-1.13 15.25-3.13 7.84-1.99 15.26-4.02 18.75-5.37v-79l7.92-20.75c4.36-11.41 11.95-31.1 16.87-43.75 4.93-12.65 12.89-33.13 17.7-45.5 4.81-12.38 9.35-23.63 10.09-25 1.13-2.1 1.35 31.24 1.4 208.5 0.03 126-0.31 210.6-0.85 210-0.5-0.55-9.47-27.33-19.94-59.5-10.47-32.17-22.34-68.97-26.36-81.76-4.03-12.79-7.78-23.25-8.33-23.25-0.55 0.01-8.42 2.05-17.5 4.53-9.08 2.48-16.78 4.84-17.13 5.24-0.35 0.41-5.21 17.39-10.81 37.74-5.6 20.35-14.04 50.95-18.76 68-4.72 17.05-12.57 45.63-17.45 63.5-4.87 17.87-9.13 32.73-9.47 33-0.34 0.27-9.23 2.85-19.75 5.72-10.52 2.88-19.47 5.24-19.88 5.25-0.41 0.02 3.2-3.91 8.02-8.72 7.51-7.48 9.54-10.27 14.01-19.25 2.88-5.77 5.9-13.2 6.72-16.5 0.81-3.3 1.77-9.6 2.13-14 0.41-5.06 0.17-10.57-0.64-15-0.71-3.85-2.08-8.8-3.03-11-0.95-2.2-3.14-5.91-4.85-8.25-1.71-2.34-5.25-5.47-7.86-6.97-2.61-1.5-7.67-3.53-11.25-4.51-3.99-1.11-13.26-2.19-24-2.81-9.62-0.55-19.75-1.44-22.5-1.96-2.75-0.52-6.24-1.86-7.75-2.98-1.51-1.11-3.42-3.37-4.25-5.02-0.83-1.65-1.5-4.46-1.51-6.25-0.01-1.79 0.67-5.61 1.5-8.5 0.96-3.33 2.88-6.68 5.26-9.17 2.08-2.17 6.87-5.37 10.75-7.16 4.1-1.9 9.28-3.44 12.5-3.72 3.02-0.26 7.19-0.19 9.25 0.16 2.06 0.35 5.18 1.88 6.92 3.39 1.75 1.51 3.99 4.55 4.98 6.75 0.99 2.2 1.82 5.24 1.83 6.75 0.01 2.08 0.51 2.75 2.02 2.75 1.1 0 5.71-0.93 10.25-2.07 4.54-1.13 10.73-2.77 19.25-5.19l-0.73-6.62c-0.4-3.64-1.65-9.32-2.79-12.62-1.13-3.3-3.11-7.8-4.39-10-1.27-2.2-4.52-5.94-7.2-8.3-2.69-2.37-7.37-5.24-10.39-6.4-3.39-1.29-8.76-2.26-14-2.53-5.33-0.28-11.11 0.1-15.5 1.02-3.85 0.81-10.37 2.86-14.5 4.56-4.12 1.69-10.42 4.96-14 7.26-3.58 2.3-9.23 6.93-12.57 10.29-3.34 3.35-7.77 9.02-9.85 12.6-2.08 3.58-4.93 9.88-6.33 14-1.9 5.6-2.67 10.28-3.02 18.5-0.3 6.87-0.01 13.06 0.77 16.5 0.68 3.02 2.25 7.52 3.49 10 1.23 2.48 4.67 6.67 7.63 9.31 3.11 2.78 7.7 5.67 10.88 6.83 3.02 1.11 7.52 2.4 10 2.86 2.48 0.47 11.25 1.14 19.5 1.5 8.25 0.35 17.36 1.06 20.25 1.57 3.32 0.59 6.42 1.94 8.42 3.68 1.74 1.51 3.76 4.21 4.5 6 0.73 1.79 1.34 5.16 1.34 7.5 0.01 2.34-0.75 6.5-1.69 9.25-1.02 2.98-3.35 6.64-5.77 9.04-2.23 2.23-6.53 5.26-9.55 6.75-3.02 1.49-8.87 3.41-13 4.26-4.51 0.94-9.09 1.29-11.5 0.89-2.2-0.37-5.35-1.35-7-2.18-1.65-0.82-4.06-2.45-5.35-3.63-1.29-1.17-3.2-3.82-4.25-5.88-1.04-2.06-2.13-5.55-2.4-7.75-0.47-3.76-0.67-3.97-3.25-3.43-1.51 0.32-8.37 2.05-15.25 3.85-7.81 2.05-12.62 3.81-12.81 4.68-0.17 0.77 0.38 5.45 1.24 10.4 0.85 4.95 2.81 11.7 4.36 15 1.54 3.3 4.81 8.18 7.26 10.83 2.77 3.01 7.09 6.14 11.45 8.28 3.85 1.89 8.52 3.77 10.37 4.17 1.86 0.39 3.52 0.95 3.69 1.22 0.16 0.27-11.03 3.58-24.88 7.34-13.85 3.76-33.51 9.06-43.68 11.79-10.17 2.72-18.58 4.82-18.67 4.66-0.09-0.16 2.61-2.56 6-5.32 3.39-2.77 8.25-7.72 10.78-11 2.54-3.29 6.31-9.34 8.37-13.47 2.07-4.12 4.56-10.65 5.53-14.5 0.98-3.85 2.08-10.37 2.46-14.5 0.39-4.23 0.21-10.44-0.39-14.25-0.6-3.71-2.07-9.34-3.28-12.5-1.46-3.8-3.92-7.46-7.25-10.8-3.26-3.25-7.01-5.79-10.55-7.15-3.02-1.16-8.2-2.59-11.5-3.19-3.3-0.59-14.1-1.48-24-1.97-14.94-0.73-18.81-1.24-22.75-3.01q-4.75-2.13-6.45-5.38c-1.03-1.98-1.66-5.39-1.62-8.75 0.05-3.37 0.85-7.05 2.07-9.5 1.1-2.2 3.11-5.35 4.46-7 1.35-1.65 4.45-4.21 6.88-5.68 2.42-1.47 7.33-3.44 10.91-4.37 3.89-1.01 8.51-1.5 11.5-1.21 2.75 0.26 6.35 1.24 8 2.17 1.65 0.94 4 3.14 5.23 4.9 1.22 1.75 2.8 5.55 3.5 8.44 0.7 2.89 1.72 5.25 2.27 5.24 0.55-0.02 7.3-1.76 29-7.74l-0.22-6.38c-0.12-3.5-1.16-9.29-2.32-12.87-1.16-3.58-3.54-8.71-5.29-11.4-1.74-2.7-4.75-6.27-6.67-7.93-1.92-1.66-5.98-4.17-9-5.56-4.41-2.03-7.48-2.62-15.5-2.94-7.84-0.32-11.84 0.05-18.5 1.7-4.67 1.15-12.55 4.11-17.5 6.57-4.95 2.45-11.87 6.85-15.38 9.76-3.5 2.92-8.39 8-10.86 11.3-2.47 3.3-5.73 8.48-7.26 11.5-1.53 3.02-3.53 7.98-4.44 11-0.92 3.02-2.08 9.33-2.57 14-0.6 5.55-0.54 11.1 0.15 16 0.59 4.13 2.15 9.86 3.46 12.75 1.32 2.89 4.31 7.17 6.65 9.52 2.34 2.35 6.5 5.33 9.25 6.62 2.75 1.29 8.15 2.94 12 3.65 3.85 0.72 14.88 1.7 24.5 2.17 15.6 0.77 18.03 1.13 22.43 3.33 3.3 1.65 5.54 3.62 6.76 5.96 1.22 2.35 1.81 5.64 1.8 10-0.01 4.83-0.65 7.85-2.5 11.75-1.58 3.32-4.23 6.64-7.24 9.04-2.61 2.09-7.45 4.88-10.75 6.21-4.92 1.97-7.82 2.42-16.07 2.46-9.34 0.04-10.37-0.16-14.25-2.71-2.71-1.78-5.06-4.51-6.68-7.75-1.37-2.75-2.5-5.67-2.5-6.5 0-0.83-0.41-2.51-1.83-6l-14.83 3.74c-8.16 2.05-14.95 3.74-15.09 3.75-0.14 0-0.25-37.57-0.25-83.49 0-79-0.09-83.48-1.75-83.12-0.96 0.21-11.65 3.1-23.75 6.43-12.1 3.32-49.68 13.77-83.5 23.21-33.82 9.44-81.3 22.55-105.5 29.14-24.2 6.58-57.95 15.81-75 20.5-17.05 4.69-48.77 13.46-70.5 19.49-21.72 6.03-43.32 12.06-48 13.41-4.67 1.35-9.06 2.45-9.75 2.45-1-0.01-1.25-43.88-1.25-216.01 0-118.8 0.34-216.19 0.75-216.42 0.41-0.23 12.23-3.57 26.25-7.43 14.03-3.85 38.1-10.41 53.5-14.57 15.4-4.15 39.93-10.87 54.5-14.93 14.57-4.06 39.77-11.07 56-15.59 16.23-4.51 42.55-11.81 58.5-16.2 15.95-4.4 38.23-10.47 49.5-13.49 11.27-3.03 39.18-10.69 62-17.05 22.82-6.35 45.1-12.59 49.5-13.87 4.4-1.28 8.67-2.19 9.5-2.02zm345.7 424.7c0.14 0.2 2.93 9.14 6.21 19.87 3.28 10.73 7.73 25.12 9.88 32 3.44 10.96 3.72 12.58 2.32 13.13-0.89 0.35-9.81 2.83-19.84 5.5-10.02 2.68-18.43 4.64-18.68 4.37-0.24-0.27 3.73-16.02 8.83-35 5.1-18.98 9.67-35.79 10.16-37.37 0.48-1.58 0.99-2.7 1.12-2.5zm27.69 96.17c1.52 0.16 2.94 3.42 7.23 16.7 2.93 9.08 5.35 17.29 5.36 18.25 0.01 1.2-1.17 2.05-3.73 2.69-2.06 0.52-14.77 3.88-28.25 7.47-13.48 3.59-30.12 8.08-37 9.98-6.87 1.9-12.6 3.37-12.71 3.28-0.12-0.09 2.3-9.84 5.39-21.67 3.08-11.83 6.1-21.81 6.71-22.19 0.61-0.38 7.63-2.3 15.61-4.26 7.98-1.96 20.13-5.11 27-7 6.88-1.89 13.35-3.35 14.39-3.25zm-374.29 91.2l2.73 8c1.51 4.4 4.12 10.02 5.81 12.5 1.69 2.48 4.72 5.96 6.72 7.75 2 1.79 5.78 4.32 8.39 5.63 2.61 1.31 7.35 3 10.52 3.75 3.17 0.75 5.76 1.6 5.75 1.87 0 0.27-8.67 2.86-19.26 5.74-10.6 2.88-19.6 5.25-20.01 5.25-0.41 0.01-0.73-11.35-0.7-25.24z"/>
		<path id="Path 2" class="s0" d="m710.03 309.35l-15.47 4.15c0.43 199.86 0.54 205.5 2.19 205.49 0.96-0.01 14.35-3.32 29.75-7.37 15.4-4.05 38.91-10.23 52.24-13.74l24.25-6.38c0.01-32.21-0.28-36.49-1.24-36.46-0.69 0.02-17.13 4.18-36.54 9.25-19.41 5.06-35.51 8.98-35.78 8.71-0.27-0.28-0.47-38.19-0.46-84.25 0.03-79.14-0.07-83.74-1.72-83.65-0.96 0.05-8.71 1.97-17.22 4.25zm-118.53 30.62l-18 4.7c-3.29 12.27-10.58 38.55-18.32 66.33-7.74 27.77-16.96 61.07-20.5 74-3.54 12.92-9.98 36.42-14.31 52.21-4.33 15.79-7.64 28.97-7.37 29.29 0.28 0.32 5.9-0.82 12.5-2.53 6.6-1.72 14.25-3.75 17-4.52l5-1.4 13-48.88c48.05-12.51 62.79-16.15 63.75-16.16 1.31-0.01 2.36 1.94 4.19 7.74 1.34 4.26 4.26 13.6 6.48 20.75l4.05 13c25.21-6.59 33.09-8.51 33.78-8.5 0.69 0 1.24-0.79 1.23-1.75 0-0.96-8.98-29.2-19.94-62.75-10.96-33.55-24.56-75.74-30.23-93.75-9.13-29-10.54-32.73-12.31-32.61-1.1 0.08-10.1 2.25-20 4.83z"/>
		<path id="Path 3" class="s1" d="m592.78 389.08c-0.37 0.78-5.46 19.19-11.3 40.92-5.83 21.73-10.35 39.73-10.03 40 0.32 0.27 9.69-1.88 20.82-4.79 11.13-2.91 20.98-5.61 21.89-6 1.47-0.63 0.86-3.26-5.23-22.71-3.79-12.1-8.55-27.62-10.58-34.5-2.02-6.87-3.95-12.91-4.28-13.42-0.33-0.5-0.91-0.28-1.29 0.5z"/>
	</g>
</svg>